<?xml version="1.0" encoding="UTF-8" standalone="no"?>
<!-- Created with Inkscape (http://www.inkscape.org/) -->
<svg xmlns:dc="http://purl.org/dc/elements/1.1/" xmlns:cc="http://creativecommons.org/ns#" xmlns:rdf="http://www.w3.org/1999/02/22-rdf-syntax-ns#" xmlns:svg="http://www.w3.org/2000/svg" xmlns="http://www.w3.org/2000/svg" version="1.0" width="1000" height="465.19949" viewBox="0 0 1000 465.19949" id="svg2" xml:space="preserve"><metadata id="metadata19"><rdf:RDF><cc:Work rdf:about=""><dc:format>image/svg+xml</dc:format><dc:type rdf:resource="http://purl.org/dc/dcmitype/StillImage"/><dc:title/></cc:Work></rdf:RDF></metadata><defs id="defs17"/><g transform="matrix(3.3228773,0,0,3.3228773,-210.81995,-213.33205)" id="Layer_1"><g id="g5"><path d="m 138.245,91.201 c -27.399,0 -44.199,21.399 -44.199,42.999 0,26 21.2,42.999 44.399,42.999 15.399,0 30,-6.799 42.399,-17.799 v 32.2 c -13,7.8 -30.8,12.6 -44.6,12.6 -39.599,0 -72.799,-32.199 -72.799,-69.999 0,-39.999 33.399,-69.999 72.999,-69.999 15.2,0 33,4.6 44.599,10.4 v 31.599 c -14.599,-9.6 -29.398,-15 -42.798,-15 z" id="path7" style="fill:#e11937"/><path d="m 265.025,204.199 c -39.799,0 -73.398,-31 -73.398,-69.999 0,-39.399 33.4,-69.999 75.199,-69.999 15.199,0 34,4 45.6,9.4 V 105 c -13.199,-7.6 -30.199,-13.8 -45,-13.8 -27.398,0 -45.199,21.399 -45.199,42.999 0,25.399 21,43.8 45.6,43.8 5.199,0 10.199,-0.4 16.6,-2.801 V 150 h -22.398 v -26.6 h 51.199 v 70.799 c -14.603,6.601 -31.001,10 -48.203,10 z" id="path9" style="fill:#e11937"/><path d="M 335.59,201.399 V 67.001 h 28.799 V 201.399 H 335.59 z" id="path11" style="fill:#e11937"/></g></g><g transform="matrix(3.3228773,0,0,3.3228773,-210.81995,-213.33205)" id="Protection"/><g transform="matrix(3.3228773,0,0,3.3228773,-210.81995,-213.33205)" id="Guides"/></svg>